<?xml version="1.0" encoding="UTF-8" standalone="no"?>
<!DOCTYPE svg PUBLIC "-//W3C//DTD SVG 1.1//EN" "http://www.w3.org/Graphics/SVG/1.1/DTD/svg11.dtd">
<!--Generated by Intaglio, www.PurgatoryDesign.com-->
<svg version="1.1" viewBox="0,0,1656,396" width="1656" height="396" xmlns="http://www.w3.org/2000/svg" xmlns:xlink="http://www.w3.org/1999/xlink" xmlns:intaglio="http://purgatorydesign.com/namespaces/intaglio" intaglio:grid="36,36,1,1,0.5,#9999bf,1,0,0,0" intaglio:guides="0.8,#f0f,1,1"><path fill="#14132a" stroke="#14132a" d="M-1,-6 L1656,-6 L1656,398 L-1,398 L-1,-6 Z"/><path fill="#8c1515" d="M223.85,88.2222 L147.129,88.2222 L147.129,279.018 L147.129,288.923 C152.816,285.776,158.106,282.458,163.09,279.018 C255.411,215.301,231.145,105.269,223.85,88.2222 Z"/><path fill="#8c1515" d="M145.091,88.2222 L68.3713,88.2222 C64.4552,97.3468,55.6927,133.139,62.5291,174.194 L145.091,174.194 C145.091,174.194,145.091,88.2222,145.091,88.2222 Z"/><path fill="#8c1515" d="M62.898,176.247 C69.166,211.348,87.0453,249.973,129.131,279.018 C134.12,282.458,139.406,285.775,145.091,288.923 L145.091,279.018 L145.091,176.247 L62.898,176.247 L62.898,176.247 Z"/><path fill="#fff" d="M145.091,88.2222 L145.091,174.194 L62.5291,174.194 C62.6441,174.877,62.7791,175.564,62.898,176.247 L145.091,176.247 L145.091,279.018 L145.091,288.923 C145.443,289.117,145.759,289.327,146.111,289.521 C146.465,289.327,146.779,289.117,147.13,288.923 L147.13,279.018 L147.13,88.2222 L145.091,88.2222 Z"/><path fill="#fff" d="M103.621,104.045 L103.659,106.442 C105.257,105.147,107.583,104.123,109.438,103.75 C108.414,108.35,106.152,109.514,103.685,109.932 L103.595,113.808 C105.604,112.195,108.635,110.018,110.943,109.545 C109.632,115.406,106.81,117.533,103.685,117.974 L103.685,121.789 C106.182,120.176,110.118,117.35,113.011,116.876 C111.357,122.809,107.679,125.161,103.7,125.523 L103.711,129.039 C106.205,127.423,110.117,124.892,113.011,124.437 C111.42,130.168,107.549,133.647,103.719,134.173 L103.719,137.148 C106.231,135.543,110.118,133.008,113.011,132.545 C111.495,138.559,107.672,141.797,103.685,142.143 L103.685,144.577 C106.687,142.793,111.607,139.706,115.071,139.191 C113.094,145.638,108.43,149.139,103.685,149.58 L103.685,152.366 C105.294,151.075,108.677,149.681,110.532,149.32 C109.543,153.703,106.011,155.215,103.659,155.8 L103.651,161.001 C104.208,160.986,104.745,160.881,105.313,160.822 C105.149,159.013,106.205,157.158,108.553,155.662 C108.654,157.046,107.867,159.07,107.411,160.429 C108.677,160.138,109.931,159.79,111.182,159.261 C110.506,156.632,111.387,153.015,114.407,149.958 C114.971,151.996,114.437,155.319,114.172,157.521 C115.501,156.704,116.849,155.827,118.144,154.699 C116.688,152.198,116.957,148.315,119.776,144.425 C120.609,146.336,120.649,150.028,120.672,152.25 C121.821,151.032,123.057,149.662,124.147,148.18 C122.161,145.754,122.086,143.409,124.468,138.686 C125.294,140.598,126.044,143.468,126.077,145.697 C127.108,144.373,127.835,143.267,128.717,141.669 C128.191,140.452,128.437,139.522,129.064,138.731 C129.946,137.633,131.256,136.692,132.436,137.413 C134.075,138.156,133.25,139.959,132.679,141.28 C132.269,142.214,131.57,142.845,130.345,142.808 C129.505,144.312,128.315,145.954,127.284,147.265 C129.666,148.023,131.357,148.575,132.963,150.218 C129.439,151.678,127.333,151.334,125.589,149.875 C124.451,151.383,122.786,153.03,121.595,154.273 C123.913,154.982,125.437,155.635,127.325,157.554 C123.487,159.148,120.649,158.648,118.94,156.834 C117.604,157.981,116.323,159.171,114.945,159.981 C117.219,161.139,118.865,162.367,120.239,164.249 C115.871,165.256,112.989,164.01,111.712,161.56 C110.409,162.079,109.204,162.52,107.896,162.773 C109.14,163.841,109.987,164.661,110.617,166.065 C107.62,165.99,105.914,165.288,105.473,163.444 C104.869,163.504,104.26,163.904,103.659,163.9 L103.659,169.753 L99.9778,168.115 L99.9778,163.821 C99.605,163.784,98.7266,163.485,98.3692,163.426 C97.8383,165.168,96.5251,165.849,93.6462,165.904 C94.2691,164.482,94.6204,163.473,96.0771,162.724 C94.7447,162.38,93.4974,161.738,92.191,161.137 C91.0488,163.862,88.4614,164.994,83.8542,163.941 C85.2059,162.048,86.9119,160.349,89.2193,159.562 C88.0395,158.818,86.9495,158.086,85.785,156.964 C84.1082,158.848,81.2377,159.494,77.3179,157.863 C78.9226,156.224,80.5166,154.921,82.9552,154.458 C81.7302,153.241,80.5956,151.759,79.4228,150.278 C77.6792,151.815,75.0288,152.319,71.4335,150.804 C73.0467,149.168,74.8869,147.436,77.1936,147.459 C76.4917,146.448,75.865,145.302,75.1293,144.136 C74.3638,144.121,73.7033,144.136,72.9155,143.146 C72.0717,142.067,71.2578,139.711,72.68,138.968 C73.5576,138.211,75.5927,139.319,76.2646,140.544 C76.8798,141.667,76.6597,142.331,76.4357,143.127 C77.1529,144.251,77.963,145.367,78.6871,146.371 C78.1862,143.135,79.1044,140.458,79.949,138.557 C82.8386,142.578,82.297,146.046,80.6885,148.524 C81.8943,150.011,82.8984,151.119,84.0928,152.336 C83.7561,150.07,84.0253,146.643,84.8584,144.72 C87.5539,148.45,87.9198,152.261,86.6871,154.774 C87.8224,155.726,88.8864,156.637,90.0025,157.346 C89.3911,155.211,89.1142,151.675,89.678,149.636 C92.728,152.742,93.6646,156.248,92.9596,158.895 C94.2545,159.492,95.5164,160.003,96.8158,160.302 C96.2006,159.043,95.5992,156.882,95.7074,155.501 C98.0033,156.968,98.5747,158.656,98.4888,160.437 C98.8432,160.482,99.8136,160.926,100.161,160.926 L100.083,155.796 C97.8284,155.21,94.4301,153.914,93.3217,149.562 C95.4312,150.058,98.1199,150.559,100.083,152.302 L100.083,149.588 C95.521,149.215,90.9284,145.978,88.6662,139.527 C92.616,140.217,96.4353,142.095,100.083,144.478 L100.083,142.095 C96.1032,141.804,92.336,138.108,90.6668,132.862 C93.9638,133.482,97.0291,134.968,100.083,137.145 L100.083,134.15 C96.3571,133.742,92.5147,130.566,90.6668,124.742 C93.9638,125.365,97.0291,126.78,100.083,128.957 L100.083,125.593 C96.2297,125.329,92.5861,123.178,90.6668,117.194 C93.9638,117.81,97.0291,119.538,100.083,121.718 L100.083,117.97 C97.0513,117.626,94.1839,115.763,92.6689,109.86 C95.3123,110.476,97.645,111.608,100.083,113.788 L100.083,109.902 C97.7455,109.484,95.5839,108.558,94.4156,103.995 C96.0058,104.357,97.9396,104.447,100.097,106.374 L100.053,104.04 C98.2909,101.409,98.6867,100.251,98.8954,98.1637 C99.0895,96.2751,99.799,94.8683,101.838,94.7747 C103.876,94.8675,104.578,96.2751,104.787,98.1629 C105.006,100.256,105.387,101.412,103.621,104.045"/><path fill="#a61d38" d="M173.184,119.142 C173.532,119.329,173.932,119.302,174.062,119.067 C174.182,118.825,174.009,118.459,173.648,118.272 C173.282,118.085,172.886,118.112,172.756,118.362 C172.625,118.598,172.812,118.952,173.184,119.142"/><path fill="#a61d38" d="M175.066,115.084 C175.354,115.372,175.746,115.428,175.932,115.223 C176.119,115.029,176.03,114.648,175.73,114.372 C175.421,114.091,175.032,114.032,174.861,114.237 C174.675,114.419,174.76,114.816,175.066,115.084"/><path fill="#fff" d="M189.745,151.574 C190.97,136.992,193.191,132.949,196.854,129.894 L197.165,129.641 L195.798,120.677 L195.093,120.792 C193.136,121.117,191.325,122.999,190.108,124.657 L190.093,116.2 L180.219,110.357 L180.226,115.401 C179.172,114.337,178.184,113.501,177.802,113.217 C176.686,112.393,175.697,112.011,174.7,112.011 C174.11,112.011,173.592,112.149,173.128,112.265 C172.348,112.463,171.818,112.635,170.679,112.149 C165.706,111.141,161.861,112.246,159.733,115.248 C157.739,118.067,157.415,122.42,158.89,126.616 C160.103,130.013,162.373,133.471,164.065,135.774 C165.046,137.125,173.7,146.25,175.697,148.299 C177.138,149.759,178.694,151.207,180.266,152.641 L180.27,156.52 L177.776,154.821 L175.305,160.526 L175.831,160.854 C178.023,162.217,180.195,165.76,181.674,184.266 C176.32,186.237,169.127,192.65,168.932,199.274 C168.846,202.339,170.302,206.609,177.843,209.556 C179.471,210.191,181.244,210.885,182.995,211.601 C183.085,214.976,183.167,218.582,183.238,222.428 C181.883,222.932,178.765,224.568,178.217,227.08 C177.776,229.073,178.997,231,181.839,232.824 C182.339,233.146,182.869,233.336,183.399,233.493 C183.41,234.464,183.417,235.491,183.429,236.491 C181.779,237.271,181.171,237.66,180.151,238.806 C179.643,239.392,179.172,240.012,179.453,240.597 C179.513,240.754,179.737,241.117,180.326,241.117 C180.718,241.117,181.286,240.946,182.342,240.508 C182.946,240.262,183.328,240.157,183.596,240.102 C184.056,241.184,185.045,241.89,186.169,241.89 C187.379,241.89,188.364,241.062,188.648,239.691 C188.648,239.277,188.644,238.892,188.64,238.485 C189.988,237.821,190.843,236.618,190.902,235.125 C190.973,233.419,190.069,231.77,188.584,230.656 C188.576,229.208,188.569,227.826,188.558,226.419 C193.575,225.411,198.91,222.17,199.392,217.814 C199.684,215.211,198.283,211.392,189.976,208.029 C189.464,207.823,188.983,207.626,188.49,207.424 C188.483,200.595,188.498,194.442,188.542,188.821 C197.454,184.352,203.532,180.2,204.305,174.622 C205.098,168.825,200.277,161.964,189.745,151.574 Z M174.611,113.983 C174.854,113.688,175.529,113.707,175.97,114.118 C176.216,114.33,176.365,114.636,176.376,114.912 C176.384,115.125,176.328,115.323,176.19,115.468 C176.052,115.617,175.85,115.703,175.633,115.703 C175.345,115.703,175.052,115.565,174.812,115.341 C174.57,115.121,174.417,114.807,174.41,114.52 C174.398,114.308,174.481,114.118,174.611,113.983 Z M172.442,118.19 C172.658,117.784,173.273,117.682,173.808,117.959 C174.334,118.231,174.581,118.775,174.386,119.209 C174.233,119.481,173.965,119.615,173.639,119.615 C173.431,119.615,173.214,119.559,173.013,119.459 C172.706,119.295,172.482,119.037,172.393,118.761 C172.334,118.56,172.349,118.351,172.442,118.19 Z M177.277,139.888 C163.811,127.684,163.243,122.121,164.101,119.895 C164.89,117.85,167.256,117.302,168.518,117.302 C168.866,117.302,169.111,117.35,169.254,117.379 C169.687,117.477,169.706,117.555,169.84,118.1 C170.057,118.956,170.371,120.258,172.957,121.109 C176.139,122.162,178.52,122.718,180.23,122.804 L180.256,142.628 C179.255,141.71,178.337,140.851,177.277,139.888 Z M193.348,218.15 C193.322,218.732,192.594,219.857,188.533,221.122 C188.522,218.714,188.514,216.366,188.506,214.089 C191.358,215.53,193.408,216.956,193.348,218.15 Z M188.674,117.015 L188.678,122.932 L185.094,121.988 L183.481,121.156 C183.697,119.968,182.817,118.426,181.649,117 L181.645,112.864 L188.674,117.015 Z M175.753,199.461 C175.544,197.695,177.509,195.392,182.194,191.893 C182.414,195.736,182.611,200.08,182.783,204.956 C178.71,203.057,175.977,201.283,175.753,199.461 Z M184.433,212.218 C185.355,212.607,186.233,212.998,187.088,213.398 C187.096,216.031,187.106,218.741,187.122,221.544 L187.088,221.551 L187.088,226.7 L187.152,226.689 C187.156,227.726,187.163,228.753,187.17,229.81 C186.45,229.508,185.094,228.686,184.755,227.603 C184.669,222.007,184.56,216.907,184.433,212.218 Z M186.17,240.457 C185.736,240.457,185.18,240.214,184.896,239.565 L184.889,239.367 C184.873,237.482,184.859,235.653,184.837,233.857 C186.33,234.2,187.181,234.511,187.159,236.482 L187.159,239.088 L187.237,239.058 C187.237,239.229,187.237,239.379,187.241,239.55 C187.054,240.386,186.375,240.457,186.17,240.457 Z M187.073,206.842 C186.076,206.427,185.131,206.02,184.232,205.62 C182.862,166.062,179.804,161.796,177.104,159.969 L178.404,156.971 L181.705,159.219 L181.701,153.933 C182.313,154.485,182.922,155.041,183.53,155.587 C184.994,156.893,186.42,158.181,187.79,159.454 C187.252,170.368,187.043,185.491,187.073,206.842 Z M188.409,150.293 C186.371,148.315,184.116,146.187,181.685,143.942 L181.659,122.744 C182.13,122.659,182.459,122.472,182.738,122.247 L184.362,123.039 L186.479,126.417 L187.136,126.212 L187.005,124.065 L188.678,123.722 L188.682,127.134 L190.037,127.448 C190.765,125.977,192.736,123.248,194.629,122.412 L195.637,129.068 C191.926,132.265,189.668,136.398,188.409,150.293 Z M188.618,181.332 C188.726,173.171,188.91,166.417,189.171,160.754 C193.983,165.373,197.533,169.725,196.895,173.637 C196.425,176.494,193.651,179.017,188.618,181.332 Z"/><path fill="#fff" d="M124.629,209.545 L124.618,191.24 L92.1411,191.24 L92.1411,223.72 L102.169,223.72 L102.169,242.035 L134.646,242.035 L134.646,209.544 L124.629,209.544 L124.629,209.545 Z M115.02,195.369 L120.339,195.369 L120.339,208.962 L115.02,208.962 L115.02,195.369 Z M120.478,223.721 L120.478,227.861 L116.344,227.861 L116.344,223.721 L120.478,223.721 Z M97.0099,195.369 L110.596,195.369 L110.596,200.696 L97.0099,200.696 L97.0099,195.369 Z M102.169,219.588 L96.8565,219.588 L96.8565,205.999 L102.169,205.999 L102.169,219.588 Z M106.309,205.409 L110.431,205.409 L110.431,209.545 L106.309,209.545 L106.309,205.409 Z M106.747,214.264 L120.339,214.264 L120.339,219.588 L106.747,219.588 L106.747,214.264 Z M112.216,237.302 L106.903,237.302 L106.903,223.72 L112.216,223.72 L112.216,237.302 Z M129.781,237.156 L116.192,237.156 L116.192,231.836 L129.782,231.836 L129.782,237.156 L129.781,237.156 Z M129.934,227.711 L124.618,227.711 L124.618,214.122 L129.934,214.122 L129.934,227.711 Z"/><path fill="#fff" d="M424.001,198.498 C404.483,198.498,402.975,183.676,402.975,179.13 C402.975,173.783,404.408,164.338,416.848,159.76 C429.683,155.041,432.431,154.497,441.264,151.719 L441.264,149.435 C441.264,145.156,441.264,144.111,440.413,141.46 C438.711,136.368,433.828,133.172,427.205,133.172 C417.461,133.172,413.466,140.609,413.436,140.684 L412.659,142.14 L409.045,139.989 L409.404,138.877 C411.166,133.277,418.237,123.75,433.693,123.75 C443.736,123.75,450.277,126.603,454.331,132.756 C457.348,137.638,457.586,144.388,457.586,151.444 C457.586,157.642,457.437,164.549,457.302,170.119 C457.213,173.942,457.138,177.256,457.138,179.272 C457.138,184.365,457.945,188.308,462.186,188.308 C463.239,188.308,463.955,188.084,464.538,187.591 L465.702,186.605 L468.077,189.308 L467.285,190.324 C463.388,195.028,459.676,198.343,453.061,198.343 C447.334,198.343,443.369,195.624,442.026,191.056 C438.845,194.369,433.059,198.498,424.001,198.498 Z M441.264,160.62 C431.67,163.502,428.415,165.107,425.443,166.608 C421.314,168.698,419.163,172.939,419.163,177.92 C419.163,181.817,420.553,188.35,429.908,188.35 C432.999,188.35,437.412,187.782,441.264,185.02 L441.264,160.62 L441.264,160.62 Z"/><g><path fill="#fff" d="M304.744,198.311 C295.403,198.311,288.287,197.288,280.985,194.907 L279.932,194.563 L279.932,189.33 C279.932,182.363,279.782,179.623,279.632,177.405 L279.423,173.784 L283.672,173.791 L283.762,175.307 C283.941,178.555,285.031,181.751,287.017,183.991 C290.079,187.456,297.135,189.546,303.683,189.546 C317.414,189.546,323.798,184.35,323.798,173.194 C323.798,163.637,317.892,159.665,309.738,154.154 L308.432,153.258 L299.815,147.523 C287.839,139.586,281.746,133.232,281.746,120.538 C281.746,114.326,284.091,94.0613,314.278,94.0613 C326.666,94.0613,336.215,95.6891,336.618,95.7489 L337.918,95.9798 L337.873,97.2562 C337.873,97.2938,337.768,101.228,337.768,105.499 C337.768,108.859,337.708,111.787,337.828,114.811 L337.947,117.066 L334.289,117.066 L334.199,115.654 C333.931,111.816,332.811,109.061,330.705,106.948 C327.8,104.037,321.38,102.677,314.577,102.677 C298.583,102.677,296.717,110.905,296.717,117.065 C296.717,125.555,301.07,128.429,310.575,134.708 L321.483,141.936 C330.779,148.134,339.538,153.987,339.538,169.399 C339.538,195.489,315.204,198.311,304.744,198.311 Z"/><path fill="#fff" d="M376.259,198.766 C365.119,198.766,358.951,194.787,356.211,185.901 C355.077,182.362,355.077,175.396,355.077,171.222 C355.077,159.717,355.181,150.48,355.301,139.788 L355.36,134.77 L345.855,134.77 L345.855,131.941 L346.781,131.561 C351.209,129.732,352.897,128.485,354.853,126.976 C361.774,121.608,366.583,112.535,366.657,112.401 L368.277,109.653 L371.413,109.653 L371.413,125.841 L395.941,125.841 L395.941,134.771 L371.413,134.771 L371.413,172.582 C371.413,183.872,373.519,190.323,384.219,190.323 C389.184,190.323,393.006,188.396,393.036,188.367 L394.515,187.605 L395.777,190.532 L395.158,191.234 C394.904,191.517,389.348,198.766,376.259,198.766 Z"/><path fill="#fff" d="M474.222,197.863 L474.222,194.444 L475.611,194.339 C476.82,194.235,479.867,193.756,481.995,191.352 C484.22,188.874,484.355,182.729,484.355,170.461 L484.355,149.883 C484.355,141.028,484.221,137.235,482.936,135.308 C481.465,133.188,478.21,132.964,476.477,132.837 C476.253,132.829,476.059,132.799,475.88,132.792 L474.506,132.651 L474.506,128.528 L476.134,128.655 C476.418,128.692,476.776,128.692,477.238,128.692 C479.463,128.692,484.713,128.394,490.253,127.319 C494.487,126.647,496.95,125.183,497.846,124.765 L498.667,124.384 L500.086,125.228 L500.086,130.947 C503.722,128.252,511.028,124.025,520.959,124.025 C533.936,124.025,542.418,130.095,544.837,141.102 C545.524,143.835,545.778,150.457,545.778,153.989 L545.778,175 C545.778,186.886,546.241,190.225,548.466,192.307 C549.586,193.338,551.961,194.189,554.037,194.324 L555.455,194.429 L555.455,197.788 L551.886,197.602 C546.719,197.34,542.269,197.102,537.595,197.102 C532.279,197.102,527.679,197.102,521.257,197.699 L519.585,197.863 L519.585,194.533 L520.884,194.354 C523.677,193.921,525.619,193.129,526.858,191.897 C529.187,189.56,529.307,184.027,529.486,179.241 C529.516,178.45,529.546,177.613,529.59,176.748 C529.724,174.059,529.724,168.399,529.724,164.263 C529.724,158.872,529.724,153.302,529.142,147.798 C528.068,138.488,523.213,134.157,513.85,134.157 C507.425,134.157,503.409,135.628,500.369,137.188 L500.369,175 C500.369,186.887,500.855,190.225,503.079,192.307 C504.214,193.338,506.559,194.189,508.649,194.323 L510.061,194.428 L510.061,197.788 L506.23,197.594 C501.242,197.333,496.919,197.102,492.379,197.102 C487.175,197.102,482.292,197.102,475.848,197.699 L474.222,197.863 Z"/><path fill="#fff" d="M564.027,197.863 L564.027,194.369 L565.431,194.264 C566.655,194.175,569.702,193.697,571.822,191.3 C574.062,188.813,574.167,182.729,574.167,170.461 L574.167,134.769 L564.789,134.769 L564.789,130.73 L565.73,130.335 C569.807,128.654,572.316,127.318,574.167,125.876 C574.182,119.493,574.376,111.265,575.242,106.785 C578.094,91.9265,587.802,84.3852,604.139,84.3852 C611.142,84.3852,617.832,86.7225,621.715,89.8737 L622.268,90.3217 L622.492,91.8521 L615.339,101.783 L613.621,101.798 L613.233,100.902 C610.501,94.7946,606.529,92.4052,601.108,92.4052 C598.853,92.4052,595.762,93.0771,593.85,94.9964 C590.729,98.1023,590.206,102.739,590.206,111.924 L590.206,125.841 L606.244,125.841 L606.244,134.771 L590.206,134.771 L590.206,174.703 C590.206,184.208,590.52,188.837,591.758,190.697 C593.774,193.729,599.897,193.96,601.705,193.96 L603.227,193.96 L603.227,197.79 L601.63,197.7 C593.701,197.29,587.802,197.103,583.545,197.103 C578.199,197.103,572.122,197.103,565.685,197.7 L564.027,197.863 Z"/><path fill="#fff" d="M646.833,199.073 C624.865,199.073,611.739,185.379,611.739,162.456 C611.739,144.656,621.326,123.869,648.356,123.869 C670.338,123.869,683.464,137.563,683.464,160.477 C683.464,178.285,673.877,199.073,646.833,199.073 Z M647.743,132.186 C643.502,132.186,640.068,133.284,637.559,135.457 C631.765,140.303,628.838,149.135,628.838,161.687 C628.838,166.54,629.733,190.755,647.459,190.755 C651.685,190.755,655.135,189.643,657.673,187.485 C663.437,182.639,666.365,173.805,666.365,161.246 C666.366,156.394,665.47,132.186,647.743,132.186 Z"/><path fill="#fff" d="M690.408,197.863 L690.408,194.22 L691.812,194.1 C693.036,194.026,696.113,193.548,698.219,191.128 C700.458,188.649,700.548,182.729,700.548,170.461 L700.548,149.883 C700.548,141.027,700.429,137.234,699.159,135.307 C697.681,133.187,694.44,132.963,692.693,132.836 C692.485,132.829,692.275,132.799,692.126,132.791 L690.722,132.65 L690.722,128.29 L692.275,128.319 C692.544,128.341,693.007,128.349,693.455,128.349 C695.695,128.349,700.936,128.073,706.462,126.99 C709.956,126.408,712.973,125.512,714.183,124.936 L715.018,124.563 L716.288,125.228 L716.288,131.484 C719.737,128.229,725.203,124.78,732.939,124.78 C737.972,124.78,742.033,126.123,744.99,128.788 L745.482,129.244 L745.482,131.515 L739.419,142.624 L736.507,142.624 L736.059,141.923 C734.372,139.28,730.997,136.129,724.456,136.129 C721.47,136.129,718.886,136.875,716.602,138.414 L716.602,174.702 C716.602,184.207,716.916,188.694,718.155,190.546 C720.185,193.562,726.278,193.801,728.085,193.801 L729.593,193.801 L729.593,197.788 L728.011,197.699 C720.096,197.288,714.183,197.102,709.926,197.102 C704.58,197.102,698.517,197.102,692.08,197.699 L690.408,197.863 Z"/><path fill="#fff" d="M803.603,198.863 L801.676,198.222 L801.676,192.159 C798.106,194.802,791.028,198.908,781.561,198.908 C761.788,198.908,749.006,185.199,749.006,163.964 C749.006,156.923,750.395,150.226,752.948,144.58 C758.966,131.514,771.51,124.025,787.295,124.025 C793.089,124.025,798.27,124.742,801.362,125.406 L801.362,110.099 C801.362,101.124,801.243,96.3449,799.958,94.4111 C798.494,92.3131,795.344,92.0738,793.641,91.9472 C793.417,91.9403,793.224,91.925,793.06,91.9027 L791.7,91.7685 L792.015,88.5359 L793.538,88.5359 C793.88,88.5359,802.199,87.8486,808.964,86.52 C811.8,86.0567,814.608,85.4223,816.072,84.8846 L816.789,84.6161 L818.028,85.3548 L817.969,86.0567 C817.491,91.9932,817.416,104.679,817.416,114.184 L817.416,172.887 C817.416,181.66,817.534,187.088,818.805,188.836 C820.298,190.979,823.433,191.337,825.136,191.471 C825.36,191.479,825.569,191.487,825.733,191.517 L827.092,191.569 L827.092,195.437 L825.584,195.437 C823.971,195.437,817.685,195.877,811.607,196.923 C808.112,197.491,805.529,197.999,804.259,198.581 L803.603,198.863 Z M786.982,132.65 C772.959,132.65,766.105,142.252,766.105,162.002 C766.105,170.006,768.375,188.62,789.281,188.62 L789.953,188.62 C792.492,188.62,797.226,188.247,801.362,185.685 L801.362,137.466 C800.183,136.3,795.823,132.65,786.982,132.65 Z"/></g><path fill="#fff" d="M286.947,229.231 L298.595,229.231 L309.414,258.755 L313.356,270.134 L313.722,270.134 L317.664,258.755 L328.215,229.231 L339.952,229.231 L339.952,289.203 L329.955,289.203 L329.955,261.785 C329.955,256.192,330.784,248.211,331.329,242.715 L330.963,242.715 L326.102,256.379 L315.739,283.61 L310.878,283.61 L300.521,256.379 L295.75,242.715 L295.384,242.715 C295.839,248.211,296.668,256.192,296.668,261.785 L296.668,289.203 L286.947,289.203 L286.947,229.231 L286.947,229.231 Z"/><path fill="#fff" d="M377.965,229.231 L414.007,229.231 L414.007,238.221 L388.606,238.221 L388.606,253.528 L410.155,253.528 L410.155,262.518 L388.606,262.518 L388.606,280.214 L414.918,280.214 L414.918,289.203 L377.966,289.203 L377.965,229.231 L377.965,229.231 Z"/><path fill="#fff" d="M449.892,229.231 L465.849,229.231 C484.187,229.231,495.103,239.132,495.103,258.94 C495.103,278.839,484.187,289.203,466.402,289.203 L449.893,289.203 L449.893,229.231 L449.892,229.231 Z M465.117,280.587 C477.22,280.587,484.187,273.702,484.187,258.941 C484.187,244.269,477.22,237.847,465.117,237.847 L460.532,237.847 L460.532,280.587 L465.117,280.587 Z"/><path fill="#fff" d="M529.994,229.231 L540.635,229.231 L540.635,289.203 L529.994,289.203 L529.994,229.231 Z"/><path fill="#fff" d="M603.011,228.125 C610.35,228.125,616.309,231.709,620.065,235.742 L614.196,242.343 C611.082,239.319,607.692,237.392,603.101,237.392 C593.29,237.392,586.234,245.643,586.234,259.127 C586.234,272.791,592.745,281.042,602.736,281.042 C608.059,281.042,612.001,278.839,615.392,275.076 L621.261,281.587 C616.4,287.187,610.166,290.307,602.557,290.307 C587.332,290.307,575.318,279.301,575.318,259.396 C575.317,239.774,587.607,228.125,603.011,228.125 Z"/><path fill="#fff" d="M654.038,229.231 L664.678,229.231 L664.678,289.203 L654.038,289.203 L654.038,229.231 Z"/><path fill="#fff" d="M702.571,229.231 L713.488,229.231 L732.102,262.98 L738.337,275.719 L738.703,275.719 C738.15,269.581,737.329,261.965,737.329,255.275 L737.329,229.231 L747.416,229.231 L747.416,289.203 L736.5,289.203 L717.885,255.454 L711.65,242.716 L711.284,242.716 C711.83,249.041,712.658,256.283,712.658,262.98 L712.658,289.203 L702.571,289.203 L702.571,229.231 L702.571,229.231 Z"/><path fill="#fff" d="M785.422,229.231 L821.464,229.231 L821.464,238.221 L796.062,238.221 L796.062,253.528 L817.61,253.528 L817.61,262.518 L796.062,262.518 L796.062,280.214 L822.375,280.214 L822.375,289.203 L785.422,289.203 L785.422,229.231 L785.422,229.231 Z"/><text fill="#fff" font-family="Helvetica" font-size="12" transform="matrix(7.67092,0,0,7.67092,904.767,197.455)" xml:space="preserve"><tspan kerning="0.4">Yu Lab</tspan></text><path fill="#fff" d="M865.447,84.3852 L870.05,84.3852 L870.05,291.5 L865.447,291.5 L865.447,84.3852 Z"/><text fill="#fff" font-family="Helvetica" font-style="oblique" font-weight="200" font-size="7" transform="matrix(8.41306,0,0,8.41306,900.059,279.015)" xml:space="preserve"><tspan>Ophthalmology</tspan></text></svg>
