<?xml version="1.0" encoding="utf-8"?>
<!-- Generator: Adobe Illustrator 13.0.2, SVG Export Plug-In . SVG Version: 6.00 Build 14948)  -->
<!DOCTYPE svg PUBLIC "-//W3C//DTD SVG 1.1//EN" "http://www.w3.org/Graphics/SVG/1.1/DTD/svg11.dtd">
<svg version="1.1" id="Layer_1" xmlns="http://www.w3.org/2000/svg" xmlns:xlink="http://www.w3.org/1999/xlink" x="0px" y="0px"
	 width="720px" height="374px" viewBox="0 0 80.483 41.756" enable-background="new 0 0 80.483 41.756" xml:space="preserve">
<g>
	<path fill="#FFFFFF" d="M1.43,9.427c-1.383,9.612-1.964,17.859,10.125,18.9c4.418,0.381,12.011,2.904,16.2,1.348
		c5.806-2.158,4.05-7.382,8.775-11.135c-0.344-0.354-1.228-7.067-1.688-7.425c3.21-6.279-11.216-3.813-15.206-5.044
		C9.164,2.842,9.048,6.134,1.43,10.776"/>
</g>
<path fill-rule="evenodd" clip-rule="evenodd" d="M47.969,11.041h-0.34c-0.096-0.146-0.291-0.39-0.485-0.632l-4.374-4.86h-0.098
	v5.492c-0.098-0.049-0.194-0.049-0.291-0.049c-0.098,0-0.195,0-0.292,0.049v-6.95h0.389l4.811,5.2h0.097v-5.2
	c0.098,0,0.194,0.048,0.292,0.048c0.097,0,0.195-0.048,0.291-0.048V11.041"/>
<path fill-rule="evenodd" clip-rule="evenodd" d="M52.294,8.514l-0.34,0.048c-0.681,0.146-1.701,0.243-1.701,1.166
	c0,0.632,0.34,0.973,0.972,0.973c0.291,0,0.631-0.194,0.826-0.389c0.049-0.098,0.243-0.242,0.243-0.34V8.514 M53.121,10.166
	c0,0.388,0,0.583,0.583,0.485v0.194c-0.096,0.049-0.194,0.097-0.291,0.097c-0.534,0.099-0.972,0.05-1.07-0.583l-0.097,0.098
	c-0.436,0.438-0.874,0.632-1.506,0.632c-0.681,0-1.313-0.486-1.313-1.215c0-1.166,0.924-1.312,1.847-1.458
	c0.827-0.146,1.069-0.194,1.069-0.68c0-0.729-0.388-1.166-1.166-1.166c-0.729,0-1.118,0.437-1.214,0.68h-0.098V6.667
	c0.486-0.341,1.02-0.535,1.603-0.535c1.069,0,1.653,0.535,1.653,1.701V10.166z"/>
<path fill-rule="evenodd" clip-rule="evenodd" d="M55.551,4.868v1.312h1.069c-0.049,0.146-0.049,0.291,0,0.39h-1.069v2.525
	c0,0.632-0.097,1.653,0.729,1.653c0.146,0,0.34-0.049,0.487-0.049v0.242c-0.293,0.099-0.584,0.146-0.876,0.146
	c-0.778,0-1.214-0.34-1.167-1.555V6.57h-0.631c0.049-0.147,0.049-0.244,0-0.39h0.631V5.16L55.551,4.868"/>
<path fill-rule="evenodd" clip-rule="evenodd" d="M58.225,4.966c-0.293,0-0.536-0.243-0.536-0.535c0-0.243,0.243-0.485,0.536-0.485
	c0.291,0,0.534,0.242,0.534,0.485C58.759,4.723,58.516,4.966,58.225,4.966 M58.611,11.041c-0.145-0.049-0.242-0.049-0.387-0.049
	c-0.147,0-0.293,0-0.389,0.049v-4.86c0.096,0,0.242,0.049,0.389,0.049c0.145,0,0.242-0.049,0.387-0.049V11.041z"/>
<path fill-rule="evenodd" clip-rule="evenodd" d="M60.896,8.708c0,1.02,0.389,2.09,1.556,2.09c1.165,0,1.554-1.458,1.554-2.236
	c0-0.923-0.34-2.139-1.458-2.139C61.286,6.423,60.896,7.639,60.896,8.708 M62.548,6.132c1.411,0,2.382,0.972,2.382,2.478
	c0,1.265-0.875,2.479-2.576,2.479c-1.36,0-2.478-0.972-2.381-2.527C59.974,7.104,61.092,6.132,62.548,6.132z"/>
<path fill-rule="evenodd" clip-rule="evenodd" d="M66.048,6.181c0.145,0,0.243,0.049,0.389,0.049c0.145,0,0.243-0.049,0.436-0.049
	v0.923c0.341-0.632,0.876-0.972,1.605-0.972c1.166,0,1.652,0.632,1.652,1.944v2.965c-0.194-0.049-0.292-0.049-0.438-0.049
	c-0.145,0-0.243,0-0.388,0.049V8.319c0-0.924-0.195-1.652-1.118-1.652c-1.069,0-1.313,0.777-1.313,1.992v2.382
	c-0.193-0.049-0.291-0.049-0.436-0.049c-0.146,0-0.244,0-0.389,0.049V6.181"/>
<path fill-rule="evenodd" clip-rule="evenodd" d="M74.262,8.514l-0.34,0.048c-0.729,0.146-1.749,0.243-1.749,1.166
	c0,0.632,0.388,0.973,1.02,0.973c0.243,0,0.583-0.194,0.778-0.389c0.096-0.098,0.291-0.242,0.291-0.34V8.514 M75.087,10.166
	c0,0.388-0.048,0.583,0.535,0.485v0.194c-0.049,0.049-0.195,0.097-0.291,0.097c-0.536,0.099-0.973,0.05-1.021-0.583l-0.097,0.098
	c-0.438,0.438-0.924,0.632-1.507,0.632c-0.729,0-1.361-0.486-1.361-1.215c0-1.166,0.923-1.312,1.896-1.458
	c0.777-0.146,1.069-0.194,1.069-0.68c0-0.729-0.437-1.166-1.215-1.166c-0.73,0-1.118,0.437-1.167,0.68h-0.145V6.667
	c0.485-0.341,1.069-0.535,1.652-0.535c1.069,0,1.652,0.535,1.652,1.701V10.166z"/>
<path fill-rule="evenodd" clip-rule="evenodd" d="M76.935,3.41c0.146,0,0.291,0.049,0.438,0.049c0.097,0,0.242-0.049,0.389-0.049
	v7.631c-0.147-0.049-0.292-0.049-0.389-0.049c-0.147,0-0.292,0-0.438,0.049V3.41"/>
<path fill-rule="evenodd" clip-rule="evenodd" d="M42.867,15.899h1.554c0.292,0,0.632-0.048,0.925-0.048
	c0,0.048-0.049,0.146-0.049,0.243s0.049,0.194,0.049,0.292c-0.293,0-0.633-0.049-0.925-0.049h-1.554v2.964
	c0.632,0,1.214-0.048,1.846-0.048c0.292,0,0.584-0.049,0.924-0.097c0,0.097-0.049,0.193-0.049,0.292c0,0.097,0.049,0.192,0.049,0.34
	h-3.645v-6.902h3.596c-0.049,0.098-0.049,0.195-0.049,0.292s0,0.195,0.049,0.292c-0.34-0.049-0.631-0.097-0.923-0.097l-1.021-0.049
	h-0.777V15.899"/>
<path fill-rule="evenodd" clip-rule="evenodd" d="M46.415,14.977c0.145,0,0.291,0,0.485,0c0.146,0,0.291,0,0.438,0
	c0.389,1.118,0.875,2.381,1.507,3.743c0.485-0.924,1.166-2.673,1.554-3.743c0.097,0,0.195,0,0.341,0c0.097,0,0.194,0,0.292,0
	c-1.167,2.625-2.285,4.957-3.257,7.437c-0.146-0.049-0.242-0.049-0.34-0.049c-0.146,0-0.244,0-0.34,0.049
	c0.632-1.265,1.069-2.139,1.361-2.673L46.415,14.977"/>
<path fill-rule="evenodd" clip-rule="evenodd" d="M55.113,16.97c0-0.875-0.242-1.75-1.263-1.75c-0.924,0-1.36,0.924-1.409,1.75
	H55.113 M55.648,19.302c-0.487,0.34-1.118,0.584-1.701,0.584c-1.411,0-2.431-0.924-2.431-2.479c0-1.409,0.826-2.527,2.333-2.527
	c1.118,0,2.188,0.826,2.041,2.478c-0.68,0-1.36,0-2.041,0H52.44c-0.098,1.118,0.534,2.092,1.75,2.092
	c0.68,0,1.214-0.438,1.506-0.682L55.648,19.302z"/>
<path fill-rule="evenodd" clip-rule="evenodd" d="M42.041,21.636c0.145,0,0.291,0.048,0.437,0.048c0.145,0,0.292-0.048,0.437-0.048
	v6.95c-0.145,0-0.292-0.049-0.437-0.049c-0.146,0-0.292,0.049-0.437,0.049V21.636"/>
<path fill-rule="evenodd" clip-rule="evenodd" d="M44.665,23.725c0.145,0,0.243,0.049,0.388,0.049c0.146,0,0.293-0.049,0.438-0.049
	v0.924c0.34-0.632,0.875-0.972,1.604-0.972c1.166,0,1.652,0.632,1.652,1.992v2.917c-0.145,0-0.291-0.049-0.438-0.049
	c-0.145,0-0.242,0.049-0.389,0.049v-2.722c0-0.925-0.145-1.653-1.116-1.653c-1.069,0-1.313,0.778-1.313,1.993v2.382
	c-0.145,0-0.292-0.049-0.438-0.049c-0.145,0-0.243,0.049-0.388,0.049V23.725"/>
<path fill-rule="evenodd" clip-rule="evenodd" d="M50.253,27.613c0.242,0.389,0.68,0.729,1.118,0.729c0.534,0,1.02-0.389,1.02-0.923
	c0-1.361-2.381-0.486-2.381-2.235c0-0.973,0.729-1.507,1.652-1.507c0.534,0,0.923,0.146,1.118,0.243
	c-0.097,0.243-0.195,0.486-0.244,0.729H52.44c-0.098-0.34-0.486-0.681-0.827-0.681c-0.534,0-0.922,0.292-0.922,0.875
	c0,1.264,2.381,0.583,2.381,2.188c0,1.117-0.972,1.604-1.847,1.604c-0.438,0-0.923-0.097-1.312-0.292
	c0.097-0.243,0.194-0.485,0.242-0.729H50.253"/>
<path fill-rule="evenodd" clip-rule="evenodd" d="M54.968,22.413v1.312h1.118c-0.048,0.146-0.048,0.292,0,0.39h-1.118v2.527
	c0,0.631-0.048,1.652,0.778,1.652c0.145,0,0.292-0.049,0.437-0.049v0.243c-0.243,0.098-0.534,0.146-0.826,0.146
	c-0.778,0-1.215-0.34-1.166-1.555v-2.965h-0.632c0-0.146,0-0.243,0-0.39h0.632v-0.972L54.968,22.413"/>
<path fill-rule="evenodd" clip-rule="evenodd" d="M57.688,22.511c-0.291,0-0.534-0.244-0.534-0.487c0-0.291,0.243-0.533,0.534-0.533
	c0.243,0,0.487,0.242,0.487,0.533C58.176,22.267,57.932,22.511,57.688,22.511 M58.078,28.586c-0.146,0-0.291-0.049-0.389-0.049
	c-0.146,0-0.291,0.049-0.437,0.049v-4.861c0.146,0,0.291,0.049,0.437,0.049c0.098,0,0.243-0.049,0.389-0.049V28.586z"/>
<path fill-rule="evenodd" clip-rule="evenodd" d="M60.605,22.413v1.312h1.069c0,0.146,0,0.292,0,0.39h-1.069v2.527
	c0,0.631-0.098,1.652,0.777,1.652c0.146,0,0.292-0.049,0.438-0.049v0.243c-0.292,0.098-0.535,0.146-0.875,0.146
	c-0.729,0-1.216-0.34-1.118-1.555v-2.965h-0.632c0-0.146,0-0.243,0-0.39h0.632v-0.972L60.605,22.413"/>
<path fill-rule="evenodd" clip-rule="evenodd" d="M66.681,28.586c-0.147,0-0.292-0.049-0.389-0.049
	c-0.147,0-0.292,0.049-0.438,0.049v-0.875c-0.291,0.631-0.874,0.923-1.603,0.923c-1.118,0-1.653-0.535-1.653-1.944v-2.965
	c0.097,0,0.244,0.049,0.389,0.049c0.146,0,0.243-0.049,0.389-0.049v2.723c0,1.068,0.34,1.7,1.264,1.7
	c1.02,0,1.214-0.924,1.214-1.604v-2.819c0.146,0,0.291,0.049,0.438,0.049c0.097,0,0.242-0.049,0.389-0.049V28.586"/>
<path fill-rule="evenodd" clip-rule="evenodd" d="M69.062,22.413v1.312h1.069c-0.049,0.146-0.049,0.292,0,0.39h-1.069v2.527
	c0,0.631-0.097,1.652,0.729,1.652c0.146,0,0.34-0.049,0.486-0.049v0.243c-0.291,0.098-0.584,0.146-0.875,0.146
	c-0.778,0-1.215-0.34-1.166-1.555v-2.965h-0.632c0.048-0.146,0.048-0.243,0-0.39h0.632v-0.972L69.062,22.413"/>
<path fill-rule="evenodd" clip-rule="evenodd" d="M74.262,25.766c-0.048-0.923-0.291-1.798-1.264-1.798
	c-0.971,0-1.361,0.924-1.458,1.798H74.262 M74.795,28.051c-0.485,0.34-1.117,0.583-1.749,0.583c-1.36,0-2.381-0.923-2.381-2.479
	c0-1.409,0.826-2.479,2.332-2.479c1.118,0,2.139,0.777,2.042,2.479c-0.681,0-1.361-0.049-2.042-0.049H71.54
	c-0.048,1.166,0.535,2.139,1.75,2.139c0.729,0,1.264-0.438,1.506-0.729V28.051z"/>
<polyline fill-rule="evenodd" clip-rule="evenodd" points="0.583,38.597 0.682,40.103 0.682,41.707 0.099,41.707 0.099,37.285 
	0.632,37.285 1.653,40.638 1.702,40.638 1.557,38.889 1.557,37.285 2.14,37.285 2.14,41.707 1.604,41.707 0.536,38.305 
	0.583,38.597 "/>
<path fill-rule="evenodd" clip-rule="evenodd" d="M4.618,39.763l-0.194-1.604l-0.389,2.235h0.729L4.618,39.763 M4.667,37.285
	l0.923,4.422H5.006L4.86,40.832H3.985l-0.194,0.875H3.208l0.972-4.422H4.667z"/>
<polyline fill-rule="evenodd" clip-rule="evenodd" points="8.068,37.285 8.068,37.819 7.437,37.819 7.437,41.707 6.854,41.707 
	6.854,37.819 6.125,37.819 6.125,37.285 8.068,37.285 "/>
<rect x="9.138" y="37.285" fill-rule="evenodd" clip-rule="evenodd" width="0.583" height="4.422"/>
<path fill-rule="evenodd" clip-rule="evenodd" d="M11.665,39.52c0,0.925,0.049,1.701,0.535,1.701c0.437,0,0.534-0.776,0.534-1.701
	c0-0.972-0.097-1.749-0.534-1.749C11.713,37.771,11.665,38.548,11.665,39.52 M13.317,39.52c0,0.778,0,2.236-1.118,2.236
	c-1.118,0-1.166-1.458-1.166-2.236c0-0.825,0.048-2.283,1.166-2.283C13.317,37.236,13.317,38.694,13.317,39.52z"/>
<polyline fill-rule="evenodd" clip-rule="evenodd" points="15.164,38.597 15.262,40.103 15.262,41.707 14.679,41.707 14.679,37.285 
	15.212,37.285 16.233,40.638 16.282,40.638 16.136,38.889 16.136,37.285 16.72,37.285 16.72,41.707 16.185,41.707 15.116,38.305 
	15.164,38.597 "/>
<path fill-rule="evenodd" clip-rule="evenodd" d="M19.198,39.763l-0.194-1.604l-0.389,2.235h0.729L19.198,39.763 M19.247,37.285
	l0.923,4.422h-0.583l-0.146-0.875h-0.875l-0.194,0.875h-0.583l0.972-4.422H19.247z"/>
<polyline fill-rule="evenodd" clip-rule="evenodd" points="21.871,37.285 21.871,41.173 22.843,41.173 22.843,41.707 21.288,41.707 
	21.288,37.285 21.871,37.285 "/>
<rect x="26.1" y="37.285" fill-rule="evenodd" clip-rule="evenodd" width="0.583" height="4.422"/>
<polyline fill-rule="evenodd" clip-rule="evenodd" points="28.578,38.597 28.674,40.103 28.674,41.707 28.092,41.707 28.092,37.285 
	28.674,37.285 29.695,40.638 29.549,38.889 29.549,37.285 30.132,37.285 30.132,41.707 29.599,41.707 28.578,38.305 28.578,38.597 
	"/>
<path fill-rule="evenodd" clip-rule="evenodd" d="M32.952,37.965c-0.146-0.097-0.292-0.194-0.535-0.194
	c-0.291,0-0.485,0.292-0.485,0.583c0,0.194,0.048,0.341,0.145,0.486l0.438,0.486c0.389,0.389,0.632,0.681,0.632,1.263
	c0,0.632-0.389,1.167-1.021,1.167c-0.243,0-0.486-0.049-0.632-0.194v-0.584c0.146,0.099,0.34,0.195,0.583,0.195
	c0.34,0,0.486-0.292,0.486-0.584c0-0.874-1.215-1.069-1.215-2.235c0-0.583,0.292-1.117,0.972-1.117c0.243,0,0.438,0.049,0.632,0.146
	V37.965"/>
<polyline fill-rule="evenodd" clip-rule="evenodd" points="35.917,37.285 35.917,37.819 35.285,37.819 35.285,41.707 34.702,41.707 
	34.702,37.819 33.973,37.819 33.973,37.285 35.917,37.285 "/>
<rect x="36.985" y="37.285" fill-rule="evenodd" clip-rule="evenodd" width="0.583" height="4.422"/>
<polyline fill-rule="evenodd" clip-rule="evenodd" points="40.582,37.285 40.582,37.819 39.901,37.819 39.901,41.707 39.318,41.707 
	39.318,37.819 38.638,37.819 38.638,37.285 40.582,37.285 "/>
<path fill-rule="evenodd" clip-rule="evenodd" d="M42.186,37.285v3.256c0,0.535,0.195,0.68,0.437,0.68
	c0.389,0,0.438-0.291,0.438-0.632v-3.304h0.583v3.159c0,0.533,0,1.312-1.021,1.312c-0.923,0-1.02-0.632-1.02-1.409v-3.062H42.186"/>
<polyline fill-rule="evenodd" clip-rule="evenodd" points="46.608,37.285 46.608,37.819 45.977,37.819 45.977,41.707 45.393,41.707 
	45.393,37.819 44.712,37.819 44.712,37.285 46.608,37.285 "/>
<polyline fill-rule="evenodd" clip-rule="evenodd" points="49.232,37.285 49.232,37.819 48.261,37.819 48.261,39.18 49.136,39.18 
	49.136,39.715 48.261,39.715 48.261,41.173 49.232,41.173 49.232,41.707 47.678,41.707 47.678,37.285 49.232,37.285 "/>
<path fill-rule="evenodd" clip-rule="evenodd" d="M51.81,37.965c-0.147-0.097-0.293-0.194-0.536-0.194
	c-0.291,0-0.486,0.292-0.486,0.583c0,0.194,0.049,0.341,0.146,0.486l0.438,0.486c0.389,0.389,0.631,0.681,0.631,1.263
	c0,0.632-0.389,1.167-1.02,1.167c-0.243,0-0.487-0.049-0.632-0.194v-0.584c0.145,0.099,0.341,0.195,0.583,0.195
	c0.34,0,0.487-0.292,0.487-0.584c0-0.874-1.216-1.069-1.216-2.235c0-0.583,0.291-1.117,0.972-1.117c0.244,0,0.437,0.049,0.633,0.146
	V37.965"/>
<path fill-rule="evenodd" clip-rule="evenodd" d="M55.891,39.52c0,0.925,0.098,1.701,0.535,1.701c0.486,0,0.534-0.776,0.534-1.701
	c0-0.972-0.048-1.749-0.534-1.749C55.989,37.771,55.891,38.548,55.891,39.52 M57.592,39.52c0,0.778-0.049,2.236-1.166,2.236
	c-1.118,0-1.118-1.458-1.118-2.236c0-0.825,0-2.283,1.118-2.283C57.542,37.236,57.592,38.694,57.592,39.52z"/>
<polyline fill-rule="evenodd" clip-rule="evenodd" points="60.458,37.285 60.458,37.819 59.488,37.819 59.488,39.18 60.363,39.18 
	60.363,39.715 59.488,39.715 59.488,41.707 58.905,41.707 58.905,37.285 60.458,37.285 "/>
<polyline fill-rule="evenodd" clip-rule="evenodd" points="64.299,37.285 64.299,39.034 65.173,39.034 65.173,37.285 65.757,37.285 
	65.757,41.707 65.173,41.707 65.173,39.52 64.299,39.52 64.299,41.707 63.715,41.707 63.715,37.285 64.299,37.285 "/>
<polyline fill-rule="evenodd" clip-rule="evenodd" points="68.77,37.285 68.77,37.819 67.75,37.819 67.75,39.18 68.672,39.18 
	68.672,39.715 67.75,39.715 67.75,41.173 68.77,41.173 68.77,41.707 67.167,41.707 67.167,37.285 68.77,37.285 "/>
<path fill-rule="evenodd" clip-rule="evenodd" d="M71.005,39.763l-0.195-1.604h-0.048l-0.341,2.235h0.729L71.005,39.763
	 M71.005,37.285l0.972,4.422h-0.583L71.2,40.832h-0.874l-0.147,0.875h-0.582l0.971-4.422H71.005z"/>
<polyline fill-rule="evenodd" clip-rule="evenodd" points="73.679,37.285 73.679,41.173 74.65,41.173 74.65,41.707 73.096,41.707 
	73.096,37.285 73.679,37.285 "/>
<polyline fill-rule="evenodd" clip-rule="evenodd" points="77.033,37.285 77.033,37.819 76.352,37.819 76.352,41.707 75.768,41.707 
	75.768,37.819 75.087,37.819 75.087,37.285 77.033,37.285 "/>
<polyline fill-rule="evenodd" clip-rule="evenodd" points="78.684,37.285 78.684,39.034 79.56,39.034 79.56,37.285 80.142,37.285 
	80.142,41.707 79.56,41.707 79.56,39.52 78.684,39.52 78.684,41.707 78.102,41.707 78.102,37.285 78.684,37.285 "/>
<g>
	<line fill="none" stroke="#000000" stroke-width="0.675" stroke-miterlimit="2.613" x1="0" y1="35.049" x2="80.482" y2="35.146"/>
	<path fill-rule="evenodd" clip-rule="evenodd" fill="#35349A" d="M18.128,16.289h-6.026c0-3.354,2.673-6.026,6.026-6.026V16.289
		 M18.226,23.871c4.18,0,7.582-3.402,7.582-7.582s-3.402-7.581-7.582-7.581c-4.179,0-7.581,3.401-7.581,7.581
		S14.046,23.871,18.226,23.871z M0.583,15.949c0,0,16.379-20.412,35.333,0.242c0,0-16.427,21.19-35.089,0L0.583,15.949z M0,26.593
		V5.986c0,0,17.351-13.755,36.693,0.437v19.83c0,0-16.281,14.142-36.012,0.729L0,26.593z"/>
</g>
</svg>
