<?xml version="1.0" encoding="UTF-8" standalone="no"?>
<!DOCTYPE svg PUBLIC "-//W3C//DTD SVG 1.1//EN" "http://www.w3.org/Graphics/SVG/1.1/DTD/svg11.dtd">
<!--Generated by Intaglio, www.PurgatoryDesign.com-->
<svg version="1.1" viewBox="183,49,303,190" width="303" height="190" xmlns="http://www.w3.org/2000/svg" xmlns:xlink="http://www.w3.org/1999/xlink"><g><path fill="#646569" d="M393.522,101.597 L393.522,186.3 L378.698,186.3 L378.695,186.3 L378.695,148.099 L340.147,148.099 L340.147,186.3 L325.317,186.3 L325.317,101.597 L340.147,101.597 L340.147,135.289 L378.695,135.289 L378.695,101.597 L378.698,101.597 L393.522,101.597 Z M310.482,186.3 L310.482,186.3 L295.652,186.3 L295.652,101.597 L310.482,101.597 L310.482,186.3 Z M281.046,186.3 L281.046,186.3 L265.389,186.3 L226.83,124.013 L226.485,124.013 L226.485,186.297 L212.368,186.297 L212.361,186.297 L212.361,101.597 L212.368,101.597 L228.022,101.597 L228.029,101.597 L266.701,163.993 L266.934,163.993 L266.934,101.597 L281.05,101.597 L281.05,186.3 Z M445.769,143.654 L393.382,49 L200.438,49 C190.808,49,183,56.823,183,66.4533 L183,221.03 C183,230.661,190.808,238.472,200.438,238.472 L393.21,238.472 L445.769,143.654 Z"/><path fill="#646569" d="M406.353,238.469 L458.86,143.654 L406.526,49 L419.624,49 C426.797,49,435.518,54.1477,438.975,60.4188 L485,143.654 L438.821,227.069 C435.353,233.336,426.64,238.469,419.467,238.469 L406.353,238.469 Z"/><path fill="#6ba2b9" d="M406.357,238.469 L458.863,143.654 L406.522,49 L419.628,49 C426.794,49,435.518,54.1477,438.979,60.4188 L484.996,143.654 L438.825,227.069 C435.353,233.336,426.636,238.469,419.47,238.469 L406.357,238.469 Z"/></g></svg>
